<svg id="020671b4-b6ac-4f85-b79d-4a269b702519" data-name="Layer 1" xmlns="http://www.w3.org/2000/svg" viewBox="0 0 64 64"><defs><style>.\35 9c2e3ac-5006-4b86-8a1d-2ed6b827152d{fill:#b3b3b3;}.a2f9b463-f4ce-43b6-a102-b866ee844359{fill:#ccc;}.\32 0b162bb-f430-4c78-8104-3d1bb5c53709{fill:#e6e6e6;}</style></defs><title>Icon (Monochrome Light)</title><g id="0def89cc-de54-4532-9333-8735e0c77d9a" data-name="layer1"><g id="283e3ff6-aef2-48dc-b95d-c9b6fbe8167c" data-name="g4150"><path id="f361f867-41d4-4969-a269-02ea08b15cd9" data-name="rect4190" class="59c2e3ac-5006-4b86-8a1d-2ed6b827152d" d="M36.41,34.64c5.2,3,10.81,7.46,19.59,2.6-8.88,6.55-15.07,4.47-21.07.4S22.33,27.81,9.61,35c13-13.17,21.61-3.36,26.8-.36Z"/><path id="e93ef0e2-aed9-4f82-b4a1-47409c7e8001" data-name="path4140" class="a2f9b463-f4ce-43b6-a102-b866ee844359" d="M35.34,33c4.93,3.42,10.15,8.34,19.31,4.22-9.4,5.79-15.4,3.21-21-1.35S21.87,25,8.6,31.12C22.64,19.07,30.41,29.56,35.34,33Z"/><path id="49950b36-ba8d-4fd9-90a8-cfce4a456b4e" data-name="path4142" class="20b162bb-f430-4c78-8104-3d1bb5c53709" d="M34.5,31.21C39.14,35,44,40.34,53.41,37c-9.83,5-15.6,2-20.86-3S21.71,22.19,8,27.21c15-10.88,21.86.2,26.5,4Z"/></g></g></svg>