<svg id="393c076e-964c-48d0-9021-33516b177d6b" data-name="Layer 1" xmlns="http://www.w3.org/2000/svg" viewBox="0 0 128 64"><defs><style>.\32 a4fa12d-37ab-4596-8f8b-81d2da047c0b{font-size:26px;fill:#fff;font-family:Roboto-Regular, Roboto;}.\36 aacab00-06e4-4261-b3ba-439cbaec2c9d{fill:#b3b3b3;}.\30 fa7ba8e-2620-4436-b4df-de18c9fc361f{fill:#ccc;}.\36 00693bd-b393-4ac2-b919-9d78bab6a1b9{fill:#e6e6e6;}</style></defs><title>Text (Monochrome Light)</title><text class="2a4fa12d-37ab-4596-8f8b-81d2da047c0b" transform="translate(58.31 39.6)">Basin</text><g id="07e898ee-fbf0-4cec-93fe-913e78f26bf7" data-name="layer1"><g id="51cd6848-88da-4f92-8488-793fd3098f24" data-name="g4150"><path id="569dc53d-5f99-4591-aeed-a88504e20c7f" data-name="rect4190" class="6aacab00-06e4-4261-b3ba-439cbaec2c9d" d="M33.72,34.63c5.19,3,10.8,7.47,19.58,2.61-8.88,6.55-15.07,4.47-21.06.4S19.63,27.81,6.92,35c13-13.16,21.6-3.35,26.8-.36Z"/><path id="8889dce0-0753-450e-8d71-cc827f112e64" data-name="path4140" class="0fa7ba8e-2620-4436-b4df-de18c9fc361f" d="M32.64,33C37.57,36.4,42.79,41.32,52,37.2c-9.39,5.79-15.39,3.21-21-1.35S19.17,25,5.91,31.12C19.94,19.07,27.71,29.56,32.64,33Z"/><path id="7287bcd4-db4f-40cf-96a5-ad05a32ecb40" data-name="path4142" class="600693bd-b393-4ac2-b919-9d78bab6a1b9" d="M31.81,31.21C36.45,35,41.25,40.34,50.71,37c-9.82,5-15.6,2-20.85-3S19,22.19,5.3,27.21c15-10.88,21.87.2,26.51,4Z"/></g></g></svg>